<svg xmlns="http://www.w3.org/2000/svg" shape-rendering="geometricPrecision" text-rendering="geometricPrecision" image-rendering="optimizeQuality" fill-rule="evenodd" clip-rule="evenodd" viewBox="0 0 355 511.85"><path fill-rule="nonzero" d="M178.89 62.23c6.16-6.02 12.15-10.53 18.14-13.73 5.82-3.09 11.59-4.94 17.48-5.7v-37c0-3.2 2.59-5.8 5.79-5.8h26.09c3.19 0 5.79 2.6 5.79 5.8v45.87c6.37 4.98 11 11.67 13.09 19.38 2.18 8.04 1.61 17.12-2.62 26.44l-23.5 51.86c-1.82 4.66-3.23 9.26-3.87 13.74-.62 4.3-.54 8.53.54 12.63.72 2.73 1.91 5.47 3.66 8.19 1.8 2.8 4.22 5.62 7.33 8.43l.18.17c27.51 25.32 52.26 52.72 71.12 84.5 18.97 31.97 31.96 68.31 35.79 111.34l.02.5c.03 5.32.26 10.59.5 16.1 1.01 23.23 2.21 50.58-10.74 68.06-6.83 9.23-15.25 14.37-25.14 15.71-8.31 1.13-17.49-.53-27.43-4.76-9.6 11.01-20.64 17.9-33.19 20.39-12.76 2.53-26.88.46-42.41-6.5-12.24 9.88-24.78 14.44-37.59 13.96-12.62-.46-25.21-5.83-37.77-15.81-12.89 6.94-25.76 9.69-38.59 7.82l-.23-.04c-13-1.96-25.75-8.65-38.19-20.53-5.49 1.28-10.95 2.12-16.38 2.3-6.65.21-13.22-.59-19.66-2.81C-1 473.04-.51 458.52.21 437.15c.1-2.87.21-5.9.21-10 0-23.24 2.27-44.08 6.85-64.59 4.56-20.41 11.39-40.36 20.51-61.95 8.86-20.97 17.67-37.23 27.48-51.71 9.82-14.5 20.55-27.09 33.3-40.74 4.46-4.77 8.8-8.86 12.8-12.64 15.22-14.35 24.91-23.49 10.97-50.89-6.53-14.45-12.37-30.37-18.41-45.21-4.07-10.02-4.06-19.72-1.08-28.21 2.85-8.14 8.42-15.08 15.69-20.06V5.8c0-3.2 2.6-5.8 5.8-5.8h26.08c3.2 0 5.8 2.6 5.8 5.8v37.57c5.69.84 11.16 2.71 16.54 5.76 5.46 3.11 10.79 7.42 16.14 13.1zm23.57-3.54c-6.2 3.3-12.57 8.47-19.38 15.83l-.67.66a5.787 5.787 0 0 1-8.15-.73c-5.9-7.06-11.55-12.04-17.22-15.26-5.3-3.01-10.68-4.51-16.34-4.75h-.29c-3.2 0-5.8-2.59-5.8-5.79V11.59h-14.48v42.74c-.02 2-1.05 3.94-2.9 5-6.35 3.68-11.2 9.18-13.49 15.69-2.07 5.92-2.03 12.81.91 20.06l18.12 44.53c17.68 34.93 5.55 46.38-13.49 64.33-3.85 3.64-8.04 7.59-12.25 12.1-12.44 13.32-22.86 25.52-32.22 39.34-9.38 13.84-17.83 29.47-26.38 49.71-8.88 20.99-15.5 40.32-19.89 59.96-4.36 19.55-6.53 39.58-6.53 62.1 0 3.04-.13 6.81-.25 10.37-.55 16.31-.92 27.39 19.1 34.31 5 1.72 10.2 2.34 15.54 2.17 5.48-.18 11.14-1.19 16.89-2.69 1.96-.56 4.16-.06 5.7 1.48 11.37 11.5 22.74 17.85 34.08 19.55l.16.02c11.25 1.65 22.76-1.26 34.49-8.26a5.776 5.776 0 0 1 6.8.52c11.58 9.91 22.86 15.24 33.81 15.65 10.73.39 21.52-3.99 32.33-13.47a5.793 5.793 0 0 1 6.49-.98c14.54 7.1 27.36 9.39 38.55 7.17 10.95-2.17 20.62-8.77 29.07-19.47a5.78 5.78 0 0 1 7.22-1.86c9.51 4.62 17.89 6.57 25.01 5.6 6.7-.9 12.53-4.55 17.4-11.13 10.5-14.18 9.41-39.32 8.47-60.68-.26-6.08-.51-11.9-.51-16.6-3.71-40.87-16.12-75.47-34.2-105.95-18.21-30.67-42.24-57.25-69.01-81.89l-.08-.07c-3.9-3.51-6.97-7.11-9.33-10.79-2.41-3.76-4.08-7.61-5.1-11.49-1.52-5.71-1.65-11.45-.82-17.2.79-5.48 2.45-10.94 4.58-16.37 6.91-17.21 15.95-35.23 23.7-52.35 3.04-6.71 3.49-13.11 1.99-18.66-1.59-5.85-5.37-10.88-10.6-14.43a5.82 5.82 0 0 1-2.9-5.03V11.59H226.1v36.56c-.02 3.15-2.55 5.73-5.71 5.78-6.05.09-11.95 1.57-17.93 4.76z"/></svg>