<?xml version="1.0" encoding="utf-8"?><svg version="1.1" id="Layer_1" xmlns="http://www.w3.org/2000/svg" xmlns:xlink="http://www.w3.org/1999/xlink" x="0px" y="0px" viewBox="0 0 122.88 92.75" style="enable-background:new 0 0 122.88 92.75" xml:space="preserve"><style type="text/css">.st0{fill-rule:evenodd;clip-rule:evenodd;}</style><g><path class="st0" d="M60.21,47.96c0-0.68,0.55-1.23,1.23-1.23c0.68,0,1.23,0.55,1.23,1.23v40.99c5.14,1.23,10.04,1.62,14.68,1.17 c4.66-0.45,9.08-1.75,13.26-3.91l-5.69-38.08c-0.1-0.67,0.36-1.29,1.03-1.39c0.67-0.1,1.29,0.36,1.39,1.03l5.67,37.98 c5.06,0.76,9.93,0.98,14.54,0.37c4.5-0.6,8.76-1.98,12.69-4.41L100.81,12.6H22.59L2.64,81.56c4.04,2.61,8.34,4.05,12.82,4.67 c4.56,0.63,9.32,0.41,14.2-0.3l5.7-38.15c0.1-0.67,0.72-1.13,1.39-1.03c0.67,0.1,1.13,0.72,1.03,1.39l-5.71,38.2 c4.79,2.22,9.5,3.41,14.14,3.76c4.72,0.36,9.38-0.14,13.99-1.28V47.96L60.21,47.96z M61.36,91.15c-0.08-0.01-0.16-0.02-0.24-0.04 c-4.97,1.26-9.99,1.82-15.08,1.43c-5.11-0.39-10.29-1.72-15.57-4.26c-5.25,0.8-10.39,1.06-15.34,0.37 c-5.12-0.71-10.02-2.42-14.61-5.57C0.07,82.77-0.1,82.2,0.06,81.7L20.22,12c-0.15-0.2-0.23-0.45-0.23-0.72V1.23 c0-0.68,0.55-1.23,1.23-1.23H102c0.68,0,1.23,0.55,1.23,1.23v10.05c0,0.18-0.04,0.35-0.11,0.5l19.72,70.14 c0.16,0.56-0.1,1.13-0.58,1.4c-4.44,2.91-9.27,4.54-14.39,5.22c-4.97,0.66-10.2,0.41-15.61-0.43l-0.01,0 c-4.61,2.46-9.5,3.94-14.67,4.44C72.44,93.05,67.03,92.59,61.36,91.15L61.36,91.15z"/></g></svg>