<?xml version="1.0" encoding="utf-8"?><svg version="1.1" id="Layer_1" xmlns="http://www.w3.org/2000/svg" xmlns:xlink="http://www.w3.org/1999/xlink" x="0px" y="0px" viewBox="0 0 122.88 112.76" style="enable-background:new 0 0 122.88 112.76" xml:space="preserve"><g><path d="M37.85,8.68l23.59,7.73c2.65-0.87,4.87-1.61,7.09-2.35c5.43-1.81,10.87-3.63,16.18-5.28c1.99-0.62,3.3-1.41,3.9-2.21 c0.19-0.25,0.28-0.47,0.27-0.64c-0.01-0.15-0.1-0.31-0.28-0.49c-0.58-0.56-1.76-1.02-3.6-1.27c-8.03-1.06-16.07-1.61-24.11-1.61 C53.03,2.58,45.16,3.12,37.3,4.22c-1.68,0.24-2.75,0.65-3.27,1.16c-0.16,0.16-0.24,0.3-0.25,0.43c0,0.18,0.09,0.4,0.28,0.65 C34.66,7.26,35.95,8.06,37.85,8.68L37.85,8.68z M70.91,79.54c-0.03-0.71,0.52-1.31,1.23-1.35c0.71-0.03,1.31,0.52,1.35,1.23 c0.17,3.6,1.08,6.18,2.69,7.76c1.57,1.55,3.92,2.2,7.03,1.97c0.71-0.05,1.33,0.49,1.38,1.2c0.05,0.71-0.49,1.33-1.2,1.38 c-3.87,0.28-6.88-0.61-9.02-2.71C72.27,86.97,71.11,83.81,70.91,79.54L70.91,79.54z M49.52,79.42c0.03-0.71,0.64-1.26,1.35-1.23 c0.71,0.03,1.26,0.64,1.23,1.35c-0.21,4.27-1.37,7.43-3.46,9.48c-2.13,2.09-5.14,2.99-9.02,2.71c-0.71-0.05-1.25-0.67-1.2-1.38 s0.67-1.25,1.38-1.2c3.1,0.23,5.45-0.42,7.03-1.97C48.44,85.6,49.34,83.02,49.52,79.42L49.52,79.42z M18.56,17.67 c0.02-0.04,0.05-0.07,0.07-0.11c2.22-2.86,4.98-4.97,8.18-6.32c2.12-0.89,4.43-1.45,6.92-1.67C32.99,9.09,32.41,8.55,32,8 c-0.54-0.72-0.82-1.49-0.8-2.26c0.02-0.82,0.36-1.58,1.04-2.23c0.89-0.86,2.44-1.54,4.71-1.85C44.9,0.55,52.89,0.01,60.88,0 c8.15-0.01,16.31,0.55,24.44,1.63c2.43,0.32,4.1,1.04,5.06,1.96c0.68,0.65,1.03,1.42,1.07,2.23c0.04,0.79-0.23,1.57-0.79,2.31 c-0.38,0.5-0.9,0.99-1.57,1.44c2.57,0.2,4.94,0.75,7.1,1.67c3.15,1.34,5.84,3.45,8.07,6.32c0.05,0.06,0.09,0.13,0.13,0.2l0.01,0.03 l18.27,27.72c0.17,0.26,0.24,0.57,0.2,0.86l0,0l-5.64,47.3c-0.08,0.65-0.63,1.13-1.27,1.14l-0.02,0v0h-0.01h-13.2h-0.01 c-0.71,0-1.29-0.58-1.29-1.29c0-0.03,0-0.07,0-0.1l-0.09-9.59c0-0.06,0-0.12,0.01-0.18l-0.26-27.34l-7.17-8.46v53.63v9.99 c0,0.71-0.58,1.29-1.29,1.29H30.16c-0.71,0-1.29-0.58-1.29-1.29v-9.99V47.46l-7.1,8.82l-0.26,27.54l0,0l-0.09,9.59l0,0v0l0,0v0l0,0 v0l0,0v0l0,0v0v0v0l0,0l0,0v0v0l0,0v0v0l0,0l0,0v0v0v0l0,0v0v0l0,0v0v0l0,0v0v0l0,0l0,0v0v0v0v0l0,0l0,0v0v0v0v0l0,0v0l0,0v0v0v0v0 v0l0,0v0v0v0l0,0v0v0l0,0v0v0v0v0v0v0v0v0v0v0l0,0v0v0v0v0v0v0v0v0c0,0.71-0.58,1.29-1.29,1.29H6.92v0c-0.65,0-1.2-0.48-1.28-1.14 l-1.15-9.65l0,0c-0.01-0.04-0.01-0.07-0.01-0.11l0,0L0,46.37l0,0c-0.03-0.29,0.03-0.59,0.2-0.86L18.48,17.8 C18.5,17.75,18.53,17.72,18.56,17.67L18.56,17.67L18.56,17.67L18.56,17.67L18.56,17.67z M36.51,12.05c-3.21-0.03-6.12,0.5-8.7,1.58 c-2.42,1.02-4.55,2.53-6.33,4.53c3.45,2.55,6.01,5.25,7.7,8.96c1.83,4.02,2.59,9.18,2.27,16.57l0,0.05v56.44h28.75V27.09 c-4.57-1.04-11.03-3.38-16.05-6.57C40.45,18.15,37.49,15.29,36.51,12.05L36.51,12.05z M101.44,18.21 c-1.79-2.04-3.88-3.57-6.27-4.59c-2.52-1.08-5.4-1.59-8.63-1.54c-0.99,3.23-3.94,6.08-7.64,8.44c-5.04,3.21-11.54,5.55-16.11,6.59 v73.08h28.55V45.16h0c-0.04-1.29-0.04-2.55,0-3.77c0-5.84,0.8-10.17,2.4-13.71c1.62-3.61,4.02-6.36,7.17-9.02 C101.09,18.51,101.27,18.36,101.44,18.21L101.44,18.21z M39.15,11.83c0.94,2.37,3.37,4.59,6.39,6.52 c4.55,2.9,10.37,5.05,14.67,6.09v-5.71L39.15,11.83L39.15,11.83z M62.8,18.68v5.77c4.3-1.04,10.15-3.2,14.72-6.11 c3.06-1.95,5.52-4.21,6.43-6.62c-4.93,1.55-9.77,3.17-14.61,4.78C67.06,17.27,64.77,18.03,62.8,18.68L62.8,18.68z M103.93,82.53 h12.04l4.29-35.99l-17.28-26.22c-0.17,0.14-0.34,0.29-0.51,0.43c-2.93,2.63-5.04,5.72-6.43,9.32c-1.28,3.31-1.95,7.08-2.1,11.33 c0,0.81,0.02,1.65,0.05,2.52l9.39,11.08l0,0c0.19,0.22,0.3,0.51,0.3,0.82L103.93,82.53L103.93,82.53z M6.91,82.53h12.04l0.25-26.71 c0-0.3,0.11-0.58,0.28-0.8l0,0l9.41-11.69c0.27-6.81-0.42-11.52-2.06-15.13c-1.48-3.25-3.77-5.65-6.88-7.96L2.62,46.53L6.91,82.53 L6.91,82.53z"/></g></svg>