<svg xmlns="http://www.w3.org/2000/svg" width="220" height="60.952" viewBox="0 0 220 60.952"><g transform="translate(0 0)"><path d="M232.394,115.833a5.715,5.715,0,1,0-5.714,5.861A5.612,5.612,0,0,0,232.394,115.833Zm-7.216.3v3.835h-1.239v-8.456h3.079c1.8,0,2.632.788,2.632,2.324a1.757,1.757,0,0,1-1.463,1.8v.036c.715.114.978.752,1.125,1.919a7.8,7.8,0,0,0,.532,2.376h-1.466a26.865,26.865,0,0,1-.569-2.861,1.237,1.237,0,0,0-1.42-.978h-1.2v0l-.007,0Zm1.536-1.093c1.2,0,1.547-.641,1.547-1.206,0-.668-.344-1.2-1.547-1.2h-1.536v2.4h1.536Zm-7.109.792a7.073,7.073,0,1,1,7.069,6.993A6.931,6.931,0,0,1,219.605,115.833Z" transform="translate(-13.749 -62.795)" fill="#7ea3a8"/><g transform="translate(115.495 0)" opacity="0.67"><path d="M195.108,121.606l-8.149-9.139-8.078,9.139h-17L178.5,102.942,161.883,84.273h17.528l8.232,9.069,7.921-9.069h16.915l-16.53,18.591,16.759,18.742Zm-65.864,0V62.795h32.639V75.9H143.069v8.369h18.814V96.887H143.069v11.577h18.814v13.142Z" transform="translate(-129.244 -62.795)" fill="#839fa4"/></g><path d="M115.47,62.795V86.863h-.153c-3.048-3.5-6.858-4.724-11.276-4.724-9.053,0-15.873,6.158-18.266,14.294C83.044,87.467,76,81.971,65.564,81.971c-8.479,0-15.173,3.8-18.669,10.006V84.272H29.371V75.9H48.5V62.8H13.75v58.809H29.371V96.887h15.57a23.488,23.488,0,0,0-.714,5.815c0,12.262,9.37,20.879,21.334,20.879,10.056,0,16.689-4.726,20.194-13.329H72.367c-1.809,2.589-3.184,3.354-6.8,3.354a8.044,8.044,0,0,1-7.818-8H85c1.182,9.742,8.772,18.141,19.189,18.141a13.338,13.338,0,0,0,11.122-5.943h.151v3.81H129.24V62.8H115.47v0ZM58.179,97.063a7.541,7.541,0,0,1,7.384-6.179,7.17,7.17,0,0,1,7.454,6.179Zm48.932,15.593c-5.075,0-8.229-4.729-8.229-9.667,0-5.28,2.744-10.352,8.229-10.352,5.691,0,7.958,5.075,7.958,10.352C115.069,107.991,112.669,112.656,107.111,112.656Z" transform="translate(-13.749 -62.795)" fill="#839fa4"/></g></svg>