<svg xmlns="http://www.w3.org/2000/svg" width="64.001" height="42.237" viewBox="0 0 64.001 42.237"><path d="M49.009,14.666c2.3-1.153,3.487-.975,3.517.177a45.69,45.69,0,0,1-.356,4.965c-.886,7.861-2.3,14.274-2.423,22.372,3.813-9.871,6.975-16.668,11.083-25.091,1.3-2.689,2.157-2.187,3.221-2.689,4.167-1.862,4.315-.71,3.753,1.6C65.8,24.359,60.653,50.81,59.855,54.859c-.237,1.182-1.537.709-1.832.237-1.537-2.039-3.192-2.069-3.015-3.458.946-6.738,4.315-23.791,5.172-27.81-4.463,9.1-9.073,20.54-11.437,26.982-.5,1.36-1.419,1.271-1.98.266-.828-1.449-2.365-2.157-2.6-3.812-.828-5.291.916-15.4,1.152-21.811-2.394,6.974-6.472,20.569-8.245,26.686-.739,2.542-3.191,2.1-2.541-.325C37.246,41.5,43.069,23.325,45.58,16.793c.591-1.565,2.157-1.477,3.428-2.127ZM34.291,13.4c-.8-.177-3.1,1.064-4.522,1.271a1.718,1.718,0,0,0-1,.916c-2.247,5.172-4.256,10.078-5.97,14.511q-3.883.712-7.743,1.537c2.1-5.319,4.2-10.609,6.236-15.664,1-2.541-1.655-2.778-2.69-.236-1.33,3.281-3.842,9.457-6.62,16.639-2.039.5-4.256,1.064-6.5,1.744C3.821,34.556,3.761,35,4.47,36c.414.532,1.182.473,1.567.887.975,1,1.567,2.216,3.31,2.393-1.6,4.138-3.133,8.364-4.492,12.413-.887,2.571,1.625,3.1,2.571.384q2.305-6.517,4.847-13.211c1.389-.3,4.729-1,7.832-1.714-2.453,6.8-4.049,11.91-4.7,14.422a1.263,1.263,0,0,0,.207.945c.8,1.182,1.626,1.241,2.689,2.749a.906.906,0,0,0,1.6-.384q3.178-9.647,6.768-19.151a5.694,5.694,0,0,0,3.576-2.1c1.773-2.66,2.276-2.128,2.749-2.926.532-1.034.147-1.951-1.744-1.744,0,0-.71.059-2.069.207,2.128-5.409,4.02-9.989,5.32-13.506.443-1.212.5-2.1-.207-2.275Z" transform="translate(-4.04 -13.378)" fill="#889ba0" fill-rule="evenodd"/><path d="M28.214,42.212c.264-.335.5-.68.719-1,.961-1.422.025-2.257-.964-1.42-.141.13-.288.271-.434.418q-.243-.761-.483-1.523a19.242,19.242,0,0,0,1.271-1.71A1.832,1.832,0,1,0,25.458,34.7a2.372,2.372,0,0,0-.329,2.409c.059.221.15.537.264.92q-.74.773-1.43,1.59c-1.547,1.776-1.117,4.062.507,4.565a2.818,2.818,0,0,0,2.7-.845q.058.151.111.287c.431,1.065,1.775.735,1.243-.558-.086-.217-.193-.51-.313-.852Zm-2.2-2.235c.131.414.273.849.414,1.266a4.09,4.09,0,0,1-.537.4c-.629.364-1.091-.025-.279-1.116.133-.188.269-.371.4-.551Zm.508-3.105a2.794,2.794,0,0,1-.1-.326c-.455-1.7,1.493-1.246.508-.127C26.79,36.578,26.663,36.735,26.52,36.872Z" transform="translate(1 -10.052)" fill="#889ba0" fill-rule="evenodd"/></svg>