<svg xmlns="http://www.w3.org/2000/svg" width="63.19" height="63" viewBox="0 0 63.19 63"><g transform="translate(0 0)"><path d="M32.87,2.109h1.959c9.528.537,16.322,4.155,21.358,9.226a31.216,31.216,0,0,1,9.257,21.327v1.9A31.545,31.545,0,0,1,34.8,65.109H32.87c-9.527-.538-16.322-4.155-21.358-9.226A31.216,31.216,0,0,1,2.254,34.557v-1.9c.025-.007.037-.026.032-.063A31.1,31.1,0,0,1,11.512,11.3C16.541,6.274,23.4,2.63,32.87,2.109ZM26.677,6.627a28.109,28.109,0,0,0-16.24,11.69,27.173,27.173,0,0,0-4.55,16.335,27.428,27.428,0,0,0,2.78,11.185A27.744,27.744,0,0,0,23.075,59.359,26.965,26.965,0,0,0,34.86,61.475a27.814,27.814,0,0,0,24.8-17.093,26.94,26.94,0,0,0,2.148-11.753,27.22,27.22,0,0,0-8.688-19.241,27.191,27.191,0,0,0-8.436-5.529A27.843,27.843,0,0,0,32.839,5.742a29.326,29.326,0,0,0-6.161.885Z" transform="translate(-2.255 -2.109)" fill="#889ba0"/><path d="M30.943,25.426c1,.663,2.025,1.3,2.97,2.022-2.135,1.341-4.228,2.723-6.351,4.076.322.246.689.449,1.011.7q3.211-2.034,6.414-4.076c.956.592,1.9,1.2,2.78,1.864-2.137,1.349-4.2,2.77-6.319,4.139a12.045,12.045,0,0,0,1.042.664c2.189-1.34,4.323-2.734,6.477-4.107V26.215h4.739v8.941c1.337.074,2.812.01,4.2.031v4.2H38.968V35.125c-2.627,1.6-5.319,3.4-7.962,5.087-2.752-1.787-5.4-3.674-8.151-5.466a6.28,6.28,0,0,1-5.814,4.644c-1.951.139-4.167-.1-6.414,0V26.215c2.809.186,5.893-.376,8.12.316a6.23,6.23,0,0,1,4.013,4.139c2.749-1.727,5.454-3.5,8.183-5.245Zm-15.8,5.024v4.739a4.173,4.173,0,0,0,2.654-.442,2.751,2.751,0,0,0,.316-3.665c-.584-.673-1.57-.814-2.938-.727C15.14,30.36,15.142,30.4,15.145,30.449Zm34-4.234H53.88v8.973h4.171v4.2H49.109V26.31c0-.045-.005-.09.032-.095Z" transform="translate(-2.255 -2.109)" fill="#889ba0"/></g></svg>