<svg xmlns="http://www.w3.org/2000/svg" width="184.178" height="63" viewBox="0 0 184.178 63"><g transform="translate(-0.001)"><path d="M42.841,33.478c-.076-7.972,6.513-11.8,6.81-11.985a14.719,14.719,0,0,0-11.521-6.247c-4.9-.5-9.568,2.888-12.061,2.888s-6.331-2.82-10.4-2.736a15.426,15.426,0,0,0-13.041,7.9C-2.918,32.915,1.216,47.2,6.635,55.023c2.652,3.823,5.8,8.132,9.948,7.972,4-.16,5.5-2.584,10.321-2.584S33.082,63,37.3,62.92c4.294-.084,7.015-3.906,9.644-7.744A35.12,35.12,0,0,0,51.3,46.207a13.9,13.9,0,0,1-8.459-12.73" transform="translate(0.003)" fill="#889ba0"/><path d="M34.914,10.062A13.876,13.876,0,0,0,38.2,0a14.109,14.109,0,0,0-9.279,4.78c-2.037,2.356-3.823,6.126-3.336,9.743,3.519.274,7.136-1.8,9.333-4.461m35.72,31.251L66.986,52.371H62.3L74.236,17.229h5.472L91.693,52.371H86.844L83.09,41.313Zm11.521-3.549L78.72,27.648c-.783-2.3-1.3-4.378-1.824-6.414h-.1c-.524,2.082-1.094,4.218-1.771,6.361L71.591,37.756ZM95.25,35.37c0-3.23-.1-5.844-.213-8.238h4.119l.213,4.332h.1a9.918,9.918,0,0,1,8.968-4.9c6.1,0,10.685,5.16,10.685,12.829,0,9.074-5.525,13.551-11.468,13.551a8.851,8.851,0,0,1-7.767-3.96h-.1v13.71H95.25Zm4.53,6.726a9.509,9.509,0,0,0,.213,1.877,7.086,7.086,0,0,0,6.886,5.373c4.849,0,7.668-3.96,7.668-9.751,0-5.062-2.66-9.378-7.509-9.378A7.339,7.339,0,0,0,100.1,35.9a7.3,7.3,0,0,0-.312,1.877L99.779,42.1Zm24.084-6.726c0-3.23-.1-5.844-.213-8.238h4.119l.213,4.332h.1a9.918,9.918,0,0,1,8.968-4.9c6.1,0,10.685,5.16,10.685,12.829,0,9.074-5.525,13.551-11.468,13.551a8.851,8.851,0,0,1-7.767-3.96h-.1v13.71h-4.537ZM128.4,42.1a9.509,9.509,0,0,0,.213,1.877,7.086,7.086,0,0,0,6.886,5.373c4.849,0,7.668-3.96,7.668-9.751,0-5.062-2.66-9.378-7.509-9.378A7.339,7.339,0,0,0,128.72,35.9a7.294,7.294,0,0,0-.312,1.877L128.4,42.1Zm24.084-26.744h4.59V52.363h-4.59ZM166.3,40.584c.1,6.2,4.066,8.763,8.649,8.763a16.589,16.589,0,0,0,6.984-1.3l.783,3.283a20.405,20.405,0,0,1-8.39,1.566c-7.767,0-12.411-5.107-12.411-12.722s4.484-13.611,11.833-13.611c8.238,0,10.427,7.243,10.427,11.886a15.56,15.56,0,0,1-.16,2.136H166.3ZM179.753,37.3c.053-2.918-1.2-7.456-6.361-7.456-4.644,0-6.673,4.279-7.038,7.456Z" transform="translate(0.003)" fill="#889ba0"/></g></svg>