<svg xmlns="http://www.w3.org/2000/svg" width="220" height="31.114" viewBox="0 0 220 31.114"><g transform="translate(-0.001)"><path d="M42.176,55.132l-7.029,9.55H73.454c1.937,0,1.913.729.966,2.019s-2.57,3.56-3.55,4.889c-.5.671-1.4,1.894,1.58,1.894H88.115l4.642-6.309c2.879-3.908.251-12.038-10.043-12.038Z" transform="translate(-3.487 -55.132)" fill="#839fa4"/><path d="M32.3,86.246l14.12-19.187H63.943c1.937,0,1.913.734.966,2.019l-3.575,4.869c-.5.671-1.4,1.894,1.58,1.894H86.381C84.434,78.517,78.1,86.246,66.735,86.246Zm80.855-10.41L105.5,86.246H85.3l7.656-10.41Zm30.935-2.357H94.7l13.506-18.347h20.187l-7.739,10.521h9.009l7.748-10.521H157.6Zm-1.734,2.357L134.7,86.246H114.514l7.656-10.41ZM3.488,79.942H33.235l-1.623,2.208H3.488Zm0-4.106H36.258l-1.628,2.208H3.488Zm0,8.212H30.215l-1.618,2.2H3.488Zm220-1.9H193.847l1.628-2.208h28.013Zm0,4.1h-32.65l1.613-2.2h31.037Zm-24.994-10.41h24.994v2.212H196.871Zm-12.936-20.7L172.051,73.478H150.657l13.516-18.347Zm-36.63,20.7s-1.473,2.019-2.193,2.985c-2.531,3.43-.295,7.42,7.98,7.42h32.423l7.656-10.405Z" transform="translate(-3.487 -55.132)" fill="#839fa4"/></g></svg>