<svg id="Layer_1" data-name="Layer 1" xmlns="http://www.w3.org/2000/svg" viewBox="0 0 90.57 50"><defs><style>.cls-1{fill:#fff;}</style></defs><title>nk-white-logo</title><path class="cls-1" d="M52,39.71a4.38,4.38,0,1,0,4.31,4.38A4.35,4.35,0,0,0,52,39.71Zm0,6.14a1.76,1.76,0,1,1,1.73-1.76A1.75,1.75,0,0,1,52,45.85Z"/><path class="cls-1" d="M65.85,39.71a4.38,4.38,0,1,0,4.32,4.38A4.35,4.35,0,0,0,65.85,39.71Zm0,6.14a1.76,1.76,0,1,1,1.74-1.76A1.74,1.74,0,0,1,65.85,45.85Z"/><path class="cls-1" d="M43.57,13.52l-4-12.21H28.15c-6.74,4.14,0,7.85,0,7.85H34.7L43,34.89C74.58,43,89.61,13.52,89.61,13.52ZM68.72,27.34a2.15,2.15,0,0,1-2.13,2.16H50.33a2.14,2.14,0,0,1-2.13-2.16h0a2.14,2.14,0,0,1,2.13-2.16H66.59a2.14,2.14,0,0,1,2.13,2.16Zm4.69-5H48.23a2.16,2.16,0,0,1,0-4.32H73.41a2.16,2.16,0,0,1,0,4.32Z"/><path class="cls-1" d="M62.75,1.41h2.58a3.35,3.35,0,0,1,3.35,3.35v5.6a0,0,0,0,1,0,0H59.4a0,0,0,0,1,0,0V4.76a3.35,3.35,0,0,1,3.35-3.35Z" transform="translate(128.08 11.77) rotate(-180)"/><path class="cls-1" d="M73.48,7.43h5.16a0,0,0,0,1,0,0v5.86a3.09,3.09,0,0,1-3.09,3.09H69.38a0,0,0,0,1,0,0V11.53a4.1,4.1,0,0,1,4.1-4.1Z"/><path class="cls-1" d="M49.38,7.43h6.18a3.09,3.09,0,0,1,3.09,3.09v5.86a0,0,0,0,1,0,0H53.49a4.1,4.1,0,0,1-4.1-4.1V7.43A0,0,0,0,1,49.38,7.43Z" transform="translate(108.04 23.81) rotate(-180)"/><path class="cls-1" d="M27.32,10.06h7.1s.55,21.59.41,27.05.38,9-2.78,10.22-7.76-5.81-7.76-5.81S9.94,22.15,8,17.52v20.8c0,5.88,0,9.82-3.35,10.13s-3.53-4-3.53-4S1.81,27.71,1.63,21,1.16,8.91,1.16,8.91.37,4.56,2.28,2.56s3.53-1,3.53-1,1.44.37,6.22,9.66,16.35,24,16.35,24S28.48,20.09,27.32,10.06Z"/></svg>